<svg width="50" height="50" viewBox="0 0 50 50" fill="none" xmlns="http://www.w3.org/2000/svg">
<rect width="49.365" height="49.365" rx="13.2228" fill="#F9F9F9" fill-opacity="0.2"/>
<path d="M21.509 35.6057C23.0958 37.1388 26.2692 37.1388 27.856 35.6057" stroke="#F9F9F9" stroke-width="1.76304" stroke-linecap="round" stroke-linejoin="round"/>
<path fill-rule="evenodd" clip-rule="evenodd" d="M25.7389 12.6695C25.7399 12.6496 25.7403 12.6296 25.7403 12.6095C25.7403 11.9745 25.2667 11.4597 24.6825 11.4597C24.0983 11.4597 23.6247 11.9745 23.6247 12.6095C23.6247 12.6297 23.6252 12.6497 23.6261 12.6695C20.0849 13.2243 16.7527 17.5532 17.2778 22.383C17.5497 23.8609 16.6935 24.6439 15.8023 25.4589C14.9601 26.229 14.0867 27.0277 14.1045 28.4683C14.1045 30.4873 15.1621 31.5814 16.7153 32.124C16.7153 32.124 19.5599 33.3061 24.6826 33.3061C29.8054 33.3061 32.65 32.124 32.65 32.124C34.2031 31.5814 35.2609 30.4316 35.2607 28.4683C35.2605 27.0153 34.3877 26.2163 33.5502 25.4497C32.6629 24.6376 31.8154 23.8617 32.0875 22.383C32.1819 21.5146 32.1516 20.6625 32.0178 19.8456C31.5545 20.2709 30.9775 20.5545 30.3434 20.6349C30.3909 21.1256 30.3921 21.6287 30.3405 22.1378C30.1532 23.2457 30.3659 24.1991 30.8339 25.0083C31.2563 25.7386 31.862 26.2939 32.2683 26.6664L32.2841 26.6809C33.2256 27.5441 33.4976 27.8521 33.4977 28.4685C33.4978 29.1178 33.3295 29.5063 33.1365 29.7591C32.9333 30.0252 32.5996 30.2741 32.0685 30.4596L32.0204 30.4764L31.9815 30.4926L31.9799 30.4933L31.9795 30.4935L31.9733 30.4959C31.9624 30.5001 31.9408 30.5085 31.9086 30.5204C31.8441 30.5441 31.7371 30.582 31.5887 30.6294C31.2919 30.7242 30.8297 30.8574 30.2107 30.9927C28.9731 31.2633 27.1077 31.5431 24.6826 31.5431C22.2575 31.5431 20.3921 31.2633 19.1545 30.9927C18.5356 30.8574 18.0733 30.7242 17.7766 30.6294C17.6282 30.582 17.5212 30.5441 17.4567 30.5204C17.4244 30.5085 17.4028 30.5001 17.392 30.4959L17.3858 30.4935L17.3854 30.4933L17.3846 30.493L17.3838 30.4926L17.3448 30.4764L17.2968 30.4596C16.7452 30.267 16.4175 30.0242 16.2228 29.7722C16.0406 29.5362 15.8676 29.1547 15.8676 28.4683V28.4574L15.8674 28.4465C15.8602 27.8615 16.1135 27.5647 17.0666 26.6918L17.0828 26.6769C17.4912 26.3029 18.099 25.7463 18.5238 25.0162C18.9946 24.207 19.2128 23.2507 19.0248 22.1378C18.814 20.0589 19.483 18.0822 20.5949 16.6258C21.74 15.1257 23.1875 14.3726 24.3854 14.3726H24.9799C25.7229 14.3726 26.562 14.6624 27.3653 15.2404C27.6994 14.7188 28.1625 14.3023 28.7045 14.0454C27.795 13.3179 26.7759 12.8319 25.7389 12.6695Z" fill="#F9F9F9"/>
<ellipse cx="29.9716" cy="17.2088" rx="2.11564" ry="2.29961" fill="#00B9AE"/>
</svg>
